# xmcd CD database file
#
# Track frame offsets:
#	150
#	24785
#	58592
#	82105
#	95402
#	132375
#	148780
#	183780
#	203060
#	232802
#	240992
#
# Disc length: 3554 seconds
#
# Revision: 0
# Processed by: cddbd v1.5.2PL0 Copyright (c) Steve Scherf et al.
# Submitted via: CDex 1.70beta2
#
DISCID=860de00b
DTITLE=Susanne Abbuehl - Unknown CD for MusicBrainz and FreeDB
DYEAR=2001
DGENRE=Jazz
TTITLE0=Yes Is Pleasant Country:
TTITLE1=Ida Lupino
TTITLE2=Closer
TTITLE3=All I Need
TTITLE4=A.I.R. (All India Radio)
TTITLE5=Seven/Somewhere I Have Travelled, Gladly Beyond
TTITLE6=Skies May Be Blue - Yes
TTITLE7='Round Midnight
TTITLE8=Maggie and Milly and Molly and May
TTITLE9=Since Feeling Is First
TTITLE10=Mane Na
EXTD=
EXTT0=
EXTT1=
EXTT2=
EXTT3=
EXTT4=
EXTT5=
EXTT6=
EXTT7=
EXTT8=
EXTT9=
EXTT10=
PLAYORDER=
